<?xml version="1.0" encoding="utf-8" standalone="no"?>
<!DOCTYPE svg PUBLIC "-//W3C//DTD SVG 1.1//EN"
  "http://www.w3.org/Graphics/SVG/1.1/DTD/svg11.dtd">
<svg xmlns:xlink="http://www.w3.org/1999/xlink" width="230.4pt" height="230.4pt" viewBox="0 0 230.4 230.4" xmlns="http://www.w3.org/2000/svg" version="1.1">
 <metadata>
  <rdf:RDF xmlns:dc="http://purl.org/dc/elements/1.1/" xmlns:cc="http://creativecommons.org/ns#" xmlns:rdf="http://www.w3.org/1999/02/22-rdf-syntax-ns#">
   <cc:Work>
    <dc:type rdf:resource="http://purl.org/dc/dcmitype/StillImage"/>
    <dc:date>2025-09-01T02:55:44.700051</dc:date>
    <dc:format>image/svg+xml</dc:format>
    <dc:creator>
     <cc:Agent>
      <dc:title>Matplotlib v3.10.3, https://matplotlib.org/</dc:title>
     </cc:Agent>
    </dc:creator>
   </cc:Work>
  </rdf:RDF>
 </metadata>
 <defs>
  <style type="text/css">*{stroke-linejoin: round; stroke-linecap: butt}</style>
 </defs>
 <g id="figure_1">
  <g id="patch_1">
   <path d="M 0 230.4 
L 230.4 230.4 
L 230.4 0 
L 0 0 
L 0 230.4 
z
" style="fill: none"/>
  </g>
  <g id="axes_1">
   <g id="QuadMesh_1">
    <path d="M 7.2 223.2 
L 79.2 223.2 
L 79.2 151.2 
L 7.2 151.2 
L 7.2 223.2 
" clip-path="url(#pa78820765c)" style="fill: #3f8ec0; stroke: #3f8ec0"/>
    <path d="M 79.2 223.2 
L 151.2 223.2 
L 151.2 151.2 
L 79.2 151.2 
L 79.2 223.2 
" clip-path="url(#pa78820765c)" style="fill: #2f79b5; stroke: #2f79b5"/>
    <path d="M 151.2 223.2 
L 223.2 223.2 
L 223.2 151.2 
L 151.2 151.2 
L 151.2 223.2 
" clip-path="url(#pa78820765c)" style="fill: #2065ab; stroke: #2065ab"/>
    <path d="M 7.2 151.2 
L 79.2 151.2 
L 79.2 79.2 
L 7.2 79.2 
L 7.2 151.2 
" clip-path="url(#pa78820765c)" style="fill: #a0cce2; stroke: #a0cce2"/>
    <path d="M 79.2 151.2 
L 151.2 151.2 
L 151.2 79.2 
L 79.2 79.2 
L 79.2 151.2 
" clip-path="url(#pa78820765c)" style="fill: #ec9374; stroke: #ec9374"/>
    <path d="M 151.2 151.2 
L 223.2 151.2 
L 223.2 79.2 
L 151.2 79.2 
L 151.2 151.2 
" clip-path="url(#pa78820765c)" style="fill: #5ca3cb; stroke: #5ca3cb"/>
    <path d="M 7.2 79.2 
L 79.2 79.2 
L 79.2 7.2 
L 7.2 7.2 
L 7.2 79.2 
" clip-path="url(#pa78820765c)" style="fill: #e6eff4; stroke: #e6eff4"/>
    <path d="M 79.2 79.2 
L 151.2 79.2 
L 151.2 7.2 
L 79.2 7.2 
L 79.2 79.2 
" clip-path="url(#pa78820765c)" style="fill: #d5e7f1; stroke: #d5e7f1"/>
    <path d="M 151.2 79.2 
L 223.2 79.2 
L 223.2 7.2 
L 151.2 7.2 
L 151.2 79.2 
" clip-path="url(#pa78820765c)" style="fill: #bbdaea; stroke: #bbdaea"/>
   </g>
   <g id="QuadMesh_2">
    <path d="M 7.2 223.2 
L 79.2 223.2 
L 79.2 151.2 
L 7.2 151.2 
L 7.2 223.2 
" clip-path="url(#pa78820765c)" style="fill: #3f8ec0"/>
    <path d="M 79.2 223.2 
L 151.2 223.2 
L 151.2 151.2 
L 79.2 151.2 
L 79.2 223.2 
" clip-path="url(#pa78820765c)" style="fill: #2f79b5"/>
    <path d="M 151.2 223.2 
L 223.2 223.2 
L 223.2 151.2 
L 151.2 151.2 
L 151.2 223.2 
" clip-path="url(#pa78820765c)" style="fill: #2065ab"/>
    <path d="M 7.2 151.2 
L 79.2 151.2 
L 79.2 79.2 
L 7.2 79.2 
L 7.2 151.2 
" clip-path="url(#pa78820765c)" style="fill: #a0cce2"/>
    <path d="M 79.2 151.2 
L 151.2 151.2 
L 151.2 79.2 
L 79.2 79.2 
L 79.2 151.2 
" clip-path="url(#pa78820765c)" style="fill: #ec9374"/>
    <path d="M 151.2 151.2 
L 223.2 151.2 
L 223.2 79.2 
L 151.2 79.2 
L 151.2 151.2 
" clip-path="url(#pa78820765c)" style="fill: #5ca3cb"/>
    <path d="M 7.2 79.2 
L 79.2 79.2 
L 79.2 7.2 
L 7.2 7.2 
L 7.2 79.2 
" clip-path="url(#pa78820765c)" style="fill: #e6eff4"/>
    <path d="M 79.2 79.2 
L 151.2 79.2 
L 151.2 7.2 
L 79.2 7.2 
L 79.2 79.2 
" clip-path="url(#pa78820765c)" style="fill: #d5e7f1"/>
    <path d="M 151.2 79.2 
L 223.2 79.2 
L 223.2 7.2 
L 151.2 7.2 
L 151.2 79.2 
" clip-path="url(#pa78820765c)" style="fill: #bbdaea"/>
   </g>
  </g>
 </g>
 <defs>
  <clipPath id="pa78820765c">
   <rect x="7.2" y="7.2" width="216" height="216"/>
  </clipPath>
 </defs>
</svg>
