<?xml version="1.0" encoding="utf-8" standalone="no"?>
<!DOCTYPE svg PUBLIC "-//W3C//DTD SVG 1.1//EN"
  "http://www.w3.org/Graphics/SVG/1.1/DTD/svg11.dtd">
<svg xmlns:xlink="http://www.w3.org/1999/xlink" width="16.56pt" height="16.56pt" viewBox="0 0 16.56 16.56" xmlns="http://www.w3.org/2000/svg" version="1.1">
 <metadata>
  <rdf:RDF xmlns:dc="http://purl.org/dc/elements/1.1/" xmlns:cc="http://creativecommons.org/ns#" xmlns:rdf="http://www.w3.org/1999/02/22-rdf-syntax-ns#">
   <cc:Work>
    <dc:type rdf:resource="http://purl.org/dc/dcmitype/StillImage"/>
    <dc:date>2025-09-01T02:34:03.102957</dc:date>
    <dc:format>image/svg+xml</dc:format>
    <dc:creator>
     <cc:Agent>
      <dc:title>Matplotlib v3.10.3, https://matplotlib.org/</dc:title>
     </cc:Agent>
    </dc:creator>
   </cc:Work>
  </rdf:RDF>
 </metadata>
 <defs>
  <style type="text/css">*{stroke-linejoin: round; stroke-linecap: butt}</style>
 </defs>
 <g id="figure_1">
  <g id="patch_1">
   <path d="M 0 16.56 
L 16.56 16.56 
L 16.56 0 
L 0 0 
L 0 16.56 
z
" style="fill: none"/>
  </g>
  <g id="axes_1">
   <g id="QuadMesh_1">
    <path d="M 7.2 9.36 
L 7.92 9.36 
L 7.92 8.64 
L 7.2 8.64 
L 7.2 9.36 
" clip-path="url(#pe18cdebdb2)" style="fill: #aed3e6; stroke: #aed3e6"/>
    <path d="M 7.92 9.36 
L 8.64 9.36 
L 8.64 8.64 
L 7.92 8.64 
L 7.92 9.36 
" clip-path="url(#pe18cdebdb2)" style="fill: #a0cce2; stroke: #a0cce2"/>
    <path d="M 8.64 9.36 
L 9.36 9.36 
L 9.36 8.64 
L 8.64 8.64 
L 8.64 9.36 
" clip-path="url(#pe18cdebdb2)" style="fill: #90c4dd; stroke: #90c4dd"/>
    <path d="M 7.2 8.64 
L 7.92 8.64 
L 7.92 7.92 
L 7.2 7.92 
L 7.2 8.64 
" clip-path="url(#pe18cdebdb2)" style="fill: #d5e7f1; stroke: #d5e7f1"/>
    <path d="M 7.92 8.64 
L 8.64 8.64 
L 8.64 7.92 
L 7.92 7.92 
L 7.92 8.64 
" clip-path="url(#pe18cdebdb2)" style="fill: #fcd5bf; stroke: #fcd5bf"/>
    <path d="M 8.64 8.64 
L 9.36 8.64 
L 9.36 7.92 
L 8.64 7.92 
L 8.64 8.64 
" clip-path="url(#pe18cdebdb2)" style="fill: #bbdaea; stroke: #bbdaea"/>
    <path d="M 7.2 7.92 
L 7.92 7.92 
L 7.92 7.2 
L 7.2 7.2 
L 7.2 7.92 
" clip-path="url(#pe18cdebdb2)" style="fill: #eff3f5; stroke: #eff3f5"/>
    <path d="M 7.92 7.92 
L 8.64 7.92 
L 8.64 7.2 
L 7.92 7.2 
L 7.92 7.92 
" clip-path="url(#pe18cdebdb2)" style="fill: #e6eff4; stroke: #e6eff4"/>
    <path d="M 8.64 7.92 
L 9.36 7.92 
L 9.36 7.2 
L 8.64 7.2 
L 8.64 7.92 
" clip-path="url(#pe18cdebdb2)" style="fill: #ddebf2; stroke: #ddebf2"/>
   </g>
   <g id="QuadMesh_2">
    <path d="M 7.2 9.36 
L 7.92 9.36 
L 7.92 8.64 
L 7.2 8.64 
L 7.2 9.36 
" clip-path="url(#pe18cdebdb2)" style="fill: #aed3e6"/>
    <path d="M 7.92 9.36 
L 8.64 9.36 
L 8.64 8.64 
L 7.92 8.64 
L 7.92 9.36 
" clip-path="url(#pe18cdebdb2)" style="fill: #a0cce2"/>
    <path d="M 8.64 9.36 
L 9.36 9.36 
L 9.36 8.64 
L 8.64 8.64 
L 8.64 9.36 
" clip-path="url(#pe18cdebdb2)" style="fill: #90c4dd"/>
    <path d="M 7.2 8.64 
L 7.92 8.64 
L 7.92 7.92 
L 7.2 7.92 
L 7.2 8.64 
" clip-path="url(#pe18cdebdb2)" style="fill: #d5e7f1"/>
    <path d="M 7.92 8.64 
L 8.64 8.64 
L 8.64 7.92 
L 7.92 7.92 
L 7.92 8.64 
" clip-path="url(#pe18cdebdb2)" style="fill: #fcd5bf"/>
    <path d="M 8.64 8.64 
L 9.36 8.64 
L 9.36 7.92 
L 8.64 7.92 
L 8.64 8.64 
" clip-path="url(#pe18cdebdb2)" style="fill: #bbdaea"/>
    <path d="M 7.2 7.92 
L 7.92 7.92 
L 7.92 7.2 
L 7.2 7.2 
L 7.2 7.92 
" clip-path="url(#pe18cdebdb2)" style="fill: #eff3f5"/>
    <path d="M 7.92 7.92 
L 8.64 7.92 
L 8.64 7.2 
L 7.92 7.2 
L 7.92 7.92 
" clip-path="url(#pe18cdebdb2)" style="fill: #e6eff4"/>
    <path d="M 8.64 7.92 
L 9.36 7.92 
L 9.36 7.2 
L 8.64 7.2 
L 8.64 7.92 
" clip-path="url(#pe18cdebdb2)" style="fill: #ddebf2"/>
   </g>
  </g>
 </g>
 <defs>
  <clipPath id="pe18cdebdb2">
   <rect x="7.2" y="7.2" width="2.16" height="2.16"/>
  </clipPath>
 </defs>
</svg>
